<svg width="29" height="29" viewBox="0 0 29 29" fill="none" xmlns="http://www.w3.org/2000/svg">
<circle cx="14.5" cy="14.5" r="14.5" fill="#1AC6FF"/>
<path d="M11.5127 13.7285C12.2933 13.6641 12.9593 13.5817 13.5107 13.4814C14.0693 13.3812 14.5348 13.2666 14.9072 13.1377C15.2796 13.0088 15.5768 12.8691 15.7988 12.7188C16.0208 12.5684 16.1891 12.4108 16.3037 12.2461C16.4183 12.0742 16.4899 11.8988 16.5186 11.7197C16.5544 11.5335 16.5723 11.3438 16.5723 11.1504C16.5723 10.8926 16.5221 10.6598 16.4219 10.4521C16.3288 10.2373 16.1963 10.0547 16.0244 9.9043C15.8597 9.75391 15.6663 9.63932 15.4443 9.56055C15.2223 9.47461 14.9896 9.43164 14.7461 9.43164C14.5456 9.43164 14.3486 9.46387 14.1553 9.52832C13.9691 9.59277 13.8008 9.69303 13.6504 9.8291C13.5 9.96517 13.3783 10.1335 13.2852 10.334C13.1921 10.5345 13.1419 10.7708 13.1348 11.043H9.5791C9.5791 10.3984 9.69727 9.80046 9.93359 9.24902C10.1699 8.69043 10.5173 8.21061 10.9756 7.80957C11.4411 7.40853 12.014 7.09342 12.6943 6.86426C13.3818 6.63509 14.1732 6.52051 15.0684 6.52051C16.0352 6.52051 16.8659 6.64583 17.5605 6.89648C18.2552 7.14714 18.8245 7.48372 19.2686 7.90625C19.7126 8.32161 20.0384 8.80143 20.2461 9.3457C20.4538 9.88997 20.5576 10.4557 20.5576 11.043C20.5576 11.5658 20.4502 12.0814 20.2354 12.5898C20.0205 13.0911 19.6982 13.5495 19.2686 13.9648C18.8389 14.3802 18.3018 14.7311 17.6572 15.0176C17.0127 15.304 16.2572 15.4867 15.3906 15.5654V17.1768H11.835L11.5127 13.7285ZM13.833 22.3115C13.4248 22.3115 13.0667 22.2542 12.7588 22.1396C12.458 22.0322 12.2074 21.889 12.0068 21.71C11.8063 21.5238 11.6559 21.3125 11.5557 21.0762C11.4554 20.8398 11.4053 20.5999 11.4053 20.3564C11.4053 20.113 11.4554 19.873 11.5557 19.6367C11.6631 19.4004 11.8171 19.1927 12.0176 19.0137C12.2253 18.8275 12.4795 18.6807 12.7803 18.5732C13.0882 18.4587 13.4391 18.4014 13.833 18.4014C14.2269 18.4014 14.5742 18.4587 14.875 18.5732C15.1829 18.6807 15.4372 18.8275 15.6377 19.0137C15.8454 19.1927 15.9993 19.4004 16.0996 19.6367C16.207 19.8659 16.2607 20.1022 16.2607 20.3457C16.2607 20.5964 16.2106 20.8398 16.1104 21.0762C16.0173 21.3125 15.8704 21.5238 15.6699 21.71C15.4694 21.889 15.2152 22.0322 14.9072 22.1396C14.6064 22.2542 14.2484 22.3115 13.833 22.3115Z" fill="#F9F9F9"/>
</svg>
