<svg width="48" height="48" viewBox="0 0 48 48" fill="none" xmlns="http://www.w3.org/2000/svg">
<path fill-rule="evenodd" clip-rule="evenodd" d="M23.9999 10.473C28.4056 10.473 28.9274 10.4899 30.6674 10.5692C32.2761 10.6427 33.1497 10.9114 33.7312 11.1374C34.4479 11.4019 35.0962 11.8236 35.6284 12.3717C36.1764 12.9039 36.5982 13.5522 36.8627 14.2688C37.0886 14.8503 37.3574 15.7239 37.4308 17.3327C37.5102 19.0726 37.527 19.5944 37.527 24.0002C37.527 28.4061 37.5102 28.9278 37.4308 30.6678C37.3574 32.2765 37.0886 33.1501 36.8627 33.7316C36.5882 34.4432 36.1677 35.0895 35.6284 35.6288C35.0891 36.1681 34.4428 36.5886 33.7312 36.8631C33.1498 37.0891 32.2761 37.3579 30.6674 37.4312C28.9278 37.5106 28.406 37.5274 23.9999 37.5274C19.5938 37.5274 19.0722 37.5106 17.3324 37.4312C15.7237 37.3578 14.8501 37.089 14.2686 36.8631C13.5519 36.5986 12.9036 36.1768 12.3714 35.6288C11.8234 35.0966 11.4017 34.4483 11.1371 33.7316C10.9112 33.1502 10.6424 32.2765 10.569 30.6678C10.4896 28.9279 10.4728 28.4061 10.4728 24.0002C10.4728 19.5944 10.4896 19.0727 10.569 17.3327C10.6424 15.7239 10.9112 14.8503 11.1371 14.2688C11.4017 13.5521 11.8235 12.9038 12.3716 12.3716C12.9038 11.8236 13.5521 11.4018 14.2687 11.1373C14.8501 10.9113 15.7238 10.6425 17.3325 10.5692C19.0724 10.4898 19.5942 10.473 24 10.473L23.9999 10.473ZM23.9999 7.5C19.5189 7.5 18.9568 7.51899 17.1972 7.59929C15.4409 7.67946 14.2415 7.95835 13.192 8.36626C12.0911 8.78057 11.0937 9.43005 10.2696 10.2694C9.43004 11.0935 8.78039 12.0909 8.36593 13.1919C7.95834 14.2415 7.67946 15.4408 7.59962 17.1971C7.51899 18.9568 7.5 19.5189 7.5 24C7.5 28.4812 7.51899 29.0433 7.59962 30.8029C7.67979 32.5592 7.95867 33.7586 8.36658 34.8081C8.78089 35.9091 9.43036 36.9064 10.2697 37.7306C11.0939 38.57 12.0912 39.2194 13.1922 39.6337C14.2417 40.0417 15.4411 40.3205 17.1973 40.4007C18.9572 40.481 19.5191 40.5 24.0002 40.5C28.4812 40.5 29.0434 40.481 30.803 40.4007C32.5593 40.3205 33.7587 40.0417 34.8082 39.6337C35.9042 39.2098 36.8997 38.5616 37.7306 37.7306C38.5616 36.8996 39.2098 35.9042 39.6337 34.8081C40.0417 33.7585 40.3205 32.5592 40.4007 30.8029C40.481 29.043 40.5 28.4811 40.5 24C40.5 19.5189 40.481 18.9568 40.4007 17.1971C40.3205 15.4408 40.0417 14.2415 39.6337 13.1919C39.2194 12.091 38.57 11.0936 37.7306 10.2695C36.9064 9.42995 35.909 8.78033 34.808 8.36593C33.7584 7.95835 32.559 7.67946 30.8027 7.59962C29.0431 7.51899 28.481 7.5 23.9999 7.5ZM23.9999 15.5269C22.3241 15.5269 20.686 16.0238 19.2926 16.9548C17.8992 17.8859 16.8132 19.2092 16.1719 20.7574C15.5306 22.3056 15.3628 24.0093 15.6898 25.6529C16.0167 27.2965 16.8237 28.8062 18.0086 29.9912C19.1936 31.1762 20.7033 31.9831 22.3469 32.3101C23.9905 32.637 25.6941 32.4692 27.2423 31.8279C28.7906 31.1866 30.1139 30.1006 31.0449 28.7072C31.9759 27.3138 32.4728 25.6757 32.4728 23.9999C32.4728 21.7527 31.5801 19.5976 29.9912 18.0086C28.4022 16.4196 26.2471 15.5269 23.9999 15.5269ZM23.9999 29.4998C22.9121 29.4998 21.8488 29.1772 20.9443 28.5729C20.0399 27.9685 19.3349 27.1096 18.9187 26.1046C18.5024 25.0996 18.3935 23.9937 18.6057 22.9268C18.8179 21.86 19.3418 20.88 20.1109 20.1108C20.8801 19.3416 21.8601 18.8178 22.927 18.6056C23.9939 18.3934 25.0997 18.5023 26.1047 18.9186C27.1097 19.3349 27.9686 20.0398 28.573 20.9443C29.1773 21.8487 29.4999 22.9121 29.4999 23.9999C29.4999 25.4586 28.9204 26.8575 27.889 27.8889C26.8575 28.9204 25.4586 29.4998 23.9999 29.4998ZM34.7875 15.1922C34.7875 16.2857 33.9011 17.1722 32.8076 17.1722C31.7141 17.1722 30.8276 16.2857 30.8276 15.1922C30.8276 14.0987 31.7141 13.2123 32.8076 13.2123C33.9011 13.2123 34.7875 14.0987 34.7875 15.1922Z" fill="white"/>
</svg>
