<svg width="48" height="48" viewBox="0 0 48 48" fill="none" xmlns="http://www.w3.org/2000/svg">
<path fill-rule="evenodd" clip-rule="evenodd" d="M40.4308 15.4147C40.6731 14.5845 40.4308 13.9748 39.2761 13.9748H35.4562C34.4848 13.9748 34.0374 14.5017 33.794 15.0824C33.794 15.0824 31.8513 19.9357 29.0999 23.0885C28.2093 24.0015 27.8044 24.2912 27.3187 24.2912C27.0764 24.2912 26.7119 24.0004 26.7119 23.1724V15.4147C26.7119 14.4189 26.4423 13.9748 25.6336 13.9748H19.6308C19.024 13.9748 18.6584 14.4368 18.6584 14.8743C18.6584 15.8185 20.0347 16.0356 20.1766 18.6905V24.4568C20.1766 25.7211 19.9539 25.9504 19.4682 25.9504C18.1727 25.9504 15.0229 21.0747 13.1545 15.4963C12.7888 14.4122 12.421 13.9736 11.4453 13.9736H7.62542C6.53402 13.9736 6.31573 14.5006 6.31573 15.0812C6.31573 16.1184 7.61123 21.2626 12.3457 28.0661C15.5021 32.7125 19.9495 35.2309 23.9965 35.2309C26.4248 35.2309 26.725 34.6715 26.725 33.7082V30.1963C26.725 29.0775 26.9553 28.8537 27.7236 28.8537C28.29 28.8537 29.2614 29.1446 31.5282 31.3845C34.1181 34.0394 34.5449 35.2309 36.0019 35.2309H39.8218C40.9132 35.2309 41.4589 34.6715 41.1446 33.5673C40.7997 32.4675 39.5631 30.8709 37.9228 28.9779C37.0322 27.8994 35.6974 26.7403 35.2925 26.1574C34.726 25.4112 34.8876 25.0789 35.2925 24.4154C35.2925 24.4154 39.9462 17.6914 40.4319 15.4091" fill="white"/>
</svg>
